# Blender v2.90.1 OBJ File: 'AnimBook.blend'
# www.blender.org
mtllib AnimBook.mtl
o Cube
v 1.289941 -0.000176 -1.000000
v 1.289941 -0.000176 1.000000
v -0.008816 0.090908 -0.478194
v -0.008816 0.090908 0.478194
v -0.008816 -0.000176 -1.000000
v -0.008816 -0.000176 1.000000
v 1.233316 0.085785 -1.000000
v 1.233316 0.085785 1.000000
v -0.008816 0.085785 -1.000000
v -0.008816 0.132014 -0.478194
v -0.008816 0.085785 1.000000
v -0.008816 0.132014 0.478194
v -0.008816 0.168536 1.000000
v -0.008816 0.171585 0.478194
v 1.233316 0.168536 -1.000000
v 1.233316 0.168536 1.000000
v -0.008816 0.168536 -1.000000
v -0.008816 0.171585 -0.478194
v -1.334120 0.003286 -1.000000
v -1.334120 0.003286 1.000000
v -1.276837 0.100548 -1.000000
v -1.276837 0.100548 1.000000
v -1.276277 0.183297 -1.000000
v -1.276277 0.183297 1.000000
v -0.008816 1.337116 1.000000
v -0.008816 1.337116 -1.000000
v -0.008816 0.247113 1.000000
v -0.008816 0.320149 1.000000
v -0.008816 0.393185 1.000000
v -0.008816 0.466222 1.000000
v -0.008816 0.539258 1.000000
v -0.008816 0.612294 1.000000
v -0.008816 0.685330 1.000000
v -0.008816 0.758367 1.000000
v -0.008816 0.831403 1.000000
v -0.008816 0.904439 1.000000
v -0.008816 0.977476 1.000000
v -0.008816 1.050512 1.000000
v -0.008816 1.123548 1.000000
v -0.008816 1.196584 1.000000
v -0.008816 1.269621 1.000000
v -0.008816 0.247113 -1.000000
v -0.008816 0.320149 -1.000000
v -0.008816 0.393185 -1.000000
v -0.008816 0.466222 -1.000000
v -0.008816 0.539258 -1.000000
v -0.008816 0.612294 -1.000000
v -0.008816 0.685330 -1.000000
v -0.008816 0.758367 -1.000000
v -0.008816 0.831403 -1.000000
v -0.008816 0.904439 -1.000000
v -0.008816 0.977476 -1.000000
v -0.008816 1.050512 -1.000000
v -0.008816 1.123548 -1.000000
v -0.008816 1.196584 -1.000000
v -0.008816 1.269621 -1.000000
vt 0.502865 0.258139
vt 0.502865 0.511095
vt 0.251433 0.511095
vt 0.251433 0.258139
vt 0.812401 0.698050
vt 0.812401 0.577087
vt 0.877999 0.511089
vt 0.877999 0.764048
vt 0.782796 0.698050
vt 0.816090 0.764048
vt 0.881603 0.511089
vt 0.819803 0.499456
vt 0.822139 0.257537
vt 0.884046 0.258142
vt 0.782796 0.577087
vt 1.000000 0.764048
vt 0.937368 0.764048
vt 0.937368 0.511089
vt 1.000000 0.511089
vt 0.632614 0.741858
vt 0.570707 0.742463
vt 0.568370 0.500544
vt 0.630171 0.488911
vt 0.816090 0.511089
vt 0.754298 0.698050
vt 0.756493 0.764048
vt 0.760208 0.498873
vt 0.762544 0.256954
vt 0.754298 0.577087
vt 0.877999 0.764048
vt 0.877999 0.511089
vt 0.511111 0.743046
vt 0.508775 0.501127
vt 0.756493 0.511089
vt 0.502865 0.000000
vt 0.251433 0.000000
vt 0.813893 0.010472
vt 0.884046 0.000000
vt 0.311029 0.511095
vt 0.381147 0.511095
vt 0.381147 0.764054
vt 0.311029 0.764054
vt 0.632614 1.000000
vt 0.562460 0.989528
vt 0.754298 0.488911
vt 0.502865 0.488911
vt 0.502865 0.247037
vt 0.754298 0.247037
vt 0.502865 0.000000
vt 0.754297 0.000000
vt 0.502865 0.990002
vt 0.251433 0.511095
vt 0.251433 0.764054
vt 0.754298 0.009998
vt 0.251433 0.789785
vt 0.251433 0.846720
vt 0.000000 0.846720
vt 0.000000 0.789785
vt 0.251432 0.000000
vt 0.251432 0.048905
vt 0.000000 0.048905
vt 0.000000 0.000000
vt 0.251432 0.101825
vt 0.000000 0.101825
vt 0.251432 0.154745
vt 0.000000 0.154745
vt 0.251432 0.207665
vt 0.000000 0.207665
vt 0.251432 0.260585
vt 0.000000 0.260585
vt 0.251433 0.313505
vt 0.000000 0.313505
vt 0.251433 0.366425
vt 0.000000 0.366425
vt 0.251433 0.419345
vt 0.000000 0.419345
vt 0.251433 0.472265
vt 0.000000 0.472265
vt 0.251433 0.525185
vt 0.000000 0.525185
vt 0.251433 0.578105
vt 0.000000 0.578105
vt 0.251433 0.631025
vt 0.000000 0.631025
vt 0.251433 0.683945
vt 0.000000 0.683945
vt 0.251433 0.736865
vt 0.000000 0.736865
vn 0.0000 -1.0000 0.0000
vn -1.0000 0.0000 0.0000
vn 0.0000 0.0000 1.0000
vn 0.8351 0.5501 0.0000
vn 0.0000 0.0000 -1.0000
vn 1.0000 0.0000 0.0000
vn -0.0026 -1.0000 0.0000
vn -0.8617 0.5075 0.0000
vn 0.0000 1.0000 0.0000
vn 0.0116 0.9999 0.0000
vn -1.0000 0.0068 0.0000
usemtl Material
s off
f 5/1/1 1/2/1 2/3/1 6/4/1
f 4/5/2 3/6/2 5/7/2 6/8/2
f 12/9/2 4/5/2 6/8/2 11/10/2
f 2/11/3 8/12/3 11/13/3 6/14/3
f 4/5/2 12/9/2 10/15/2 3/6/2
f 1/16/4 7/17/4 8/18/4 2/19/4
f 5/20/5 9/21/5 7/22/5 1/23/5
f 3/6/2 10/15/2 9/24/2 5/7/2
f 14/25/2 12/9/2 11/10/2 13/26/2
f 8/12/3 16/27/3 13/28/3 11/13/3
f 12/9/2 14/25/2 18/29/2 10/15/2
f 7/17/6 15/30/6 16/31/6 8/18/6
f 9/21/5 17/32/5 15/33/5 7/22/5
f 10/15/2 18/29/2 17/34/2 9/24/2
f 19/35/7 5/1/7 6/4/7 20/36/7
f 22/37/3 20/38/3 6/14/3 11/13/3
f 21/39/8 19/40/8 20/41/8 22/42/8
f 9/21/5 5/20/5 19/43/5 21/44/5
f 16/45/9 15/46/9 17/47/9 13/48/9
f 17/47/10 23/49/10 24/50/10 13/48/10
f 17/32/5 9/21/5 21/44/5 23/51/5
f 23/52/11 21/39/11 22/42/11 24/53/11
f 24/54/3 22/37/3 11/13/3 13/28/3
f 42/55/2 17/56/2 13/57/2 27/58/2
f 26/59/2 56/60/2 41/61/2 25/62/2
f 56/60/2 55/63/2 40/64/2 41/61/2
f 55/63/2 54/65/2 39/66/2 40/64/2
f 54/65/2 53/67/2 38/68/2 39/66/2
f 53/67/2 52/69/2 37/70/2 38/68/2
f 52/69/2 51/71/2 36/72/2 37/70/2
f 51/71/2 50/73/2 35/74/2 36/72/2
f 50/73/2 49/75/2 34/76/2 35/74/2
f 49/75/2 48/77/2 33/78/2 34/76/2
f 48/77/2 47/79/2 32/80/2 33/78/2
f 47/79/2 46/81/2 31/82/2 32/80/2
f 46/81/2 45/83/2 30/84/2 31/82/2
f 45/83/2 44/85/2 29/86/2 30/84/2
f 44/85/2 43/87/2 28/88/2 29/86/2
f 43/87/2 42/55/2 27/58/2 28/88/2
